<?xml version="1.0" encoding="UTF-8" standalone="no"?>
<!-- Generator: Adobe Illustrator 16.0.0, SVG Export Plug-In . SVG Version: 6.00 Build 0)  -->

<svg
   xmlns:dc="http://purl.org/dc/elements/1.1/"
   xmlns:cc="http://creativecommons.org/ns#"
   xmlns:rdf="http://www.w3.org/1999/02/22-rdf-syntax-ns#"
   xmlns:svg="http://www.w3.org/2000/svg"
   xmlns="http://www.w3.org/2000/svg"
   xmlns:sodipodi="http://sodipodi.sourceforge.net/DTD/sodipodi-0.dtd"
   xmlns:inkscape="http://www.inkscape.org/namespaces/inkscape"
   version="1.1"
   id="Capa_1"
   x="0px"
   y="0px"
   width="938.906px"
   height="938.907px"
   viewBox="0 0 938.906 938.907"
   style="enable-background:new 0 0 938.906 938.907;"
   xml:space="preserve"
   sodipodi:docname="lightbulb.svg"
   inkscape:version="0.92.3 (2405546, 2018-03-11)"><metadata
   id="metadata53"><rdf:RDF><cc:Work
       rdf:about=""><dc:format>image/svg+xml</dc:format><dc:type
         rdf:resource="http://purl.org/dc/dcmitype/StillImage" /></cc:Work></rdf:RDF></metadata><defs
   id="defs51">
	
	
	
	
	
	
	
</defs><sodipodi:namedview
   pagecolor="#ffffff"
   bordercolor="#666666"
   borderopacity="1"
   objecttolerance="10"
   gridtolerance="10"
   guidetolerance="10"
   inkscape:pageopacity="0"
   inkscape:pageshadow="2"
   inkscape:window-width="1213"
   inkscape:window-height="969"
   id="namedview49"
   showgrid="false"
   inkscape:zoom="0.2513561"
   inkscape:cx="469.453"
   inkscape:cy="-167.09362"
   inkscape:window-x="67"
   inkscape:window-y="27"
   inkscape:window-maximized="1"
   inkscape:current-layer="Capa_1" />
<g
   id="g1513"
   inkscape:export-xdpi="1.6314193"
   inkscape:export-ydpi="1.6314193"><path
     style="fill:#959595;fill-opacity:1"
     d="m 563.136,910.787 c 11.047,0 20,-8.954 20,-20 v -46.064 c 0,-11.046 -8.953,-20 -20,-20 H 375.77 c -11.046,0 -20,8.954 -20,20 v 46.064 c 0,11.046 8.954,20 20,20 z"
     id="path2"
     inkscape:connector-curvature="0" /><path
     style="fill:#959595;fill-opacity:1"
     d="m 535.768,234.156 c -43.103,-9.792 -89.486,-9.841 -132.634,0.001 -128.785,29.377 -225.187,149.033 -190.301,283.738 17.728,68.45 70.674,111.233 108.636,167.695 10.016,14.896 18.657,30.764 24.63,47.729 1.323,3.761 6.643,21.978 8.777,43.762 0.971,9.904 9.246,17.484 19.197,17.484 h 95.379 95.38 c 9.952,0 18.228,-7.58 19.197,-17.484 2.135,-21.784 7.454,-40.001 8.778,-43.762 5.971,-16.963 14.613,-32.831 24.629,-47.729 37.961,-56.461 90.909,-99.246 108.635,-167.695 C 760.958,383.19 664.556,263.534 535.768,234.156 Z"
     id="path4"
     inkscape:connector-curvature="0" /><path
     style="fill:#959595;fill-opacity:1"
     d="m 451.388,28.12 c -11.046,0 -20,8.954 -20,20 v 125.45 c 0,11.046 8.954,20 20,20 l 36.127,0 c 11.047,0 20,-8.954 20,-20 V 48.12 c 0,-11.046 -8.953,-20 -20,-20 z"
     id="path6"
     inkscape:connector-curvature="0" /><path
     style="fill:#959595;fill-opacity:1"
     d="m 205.643,287.085 c 7.81,7.811 20.474,7.811 28.283,0 l 25.546,-25.546 c 7.811,-7.811 7.811,-20.474 0,-28.284 l -88.707,-88.707 c -7.81,-7.81 -20.474,-7.81 -28.283,0 l -25.546,25.546 c -7.811,7.811 -7.811,20.475 0,28.284 z"
     id="path8"
     inkscape:connector-curvature="0" /><path
     style="fill:#959595;fill-opacity:1"
     d="m 768.14,144.548 -88.707,88.707 c -7.81,7.812 -7.81,20.475 0,28.284 l 25.546,25.546 c 7.811,7.811 20.474,7.811 28.284,0 l 88.707,-88.707 c 7.811,-7.81 7.811,-20.474 0,-28.284 l -25.546,-25.546 c -7.81,-7.81 -20.473,-7.81 -28.284,0 z"
     id="path10"
     inkscape:connector-curvature="0" /><path
     style="fill:#959595;fill-opacity:1"
     d="m 20,508.401 h 125.451 c 11.046,0 20,-8.954 20,-20 l 0,-36.128 c 0,-11.046 -8.954,-20 -20,-20 H 20 c -11.046,0 -20,8.954 -20,20 l 0,36.128 c 0,11.046 8.955,20 20,20 z"
     id="path12"
     inkscape:connector-curvature="0" /><path
     style="fill:#959595;fill-opacity:1"
     d="m 793.455,432.274 c -11.046,0 -20,8.954 -20,20 v 36.128 c 0,11.046 8.954,20 20,20 h 125.451 c 11.046,0 20,-8.954 20,-20 l 0,-36.128 c 0,-11.046 -8.954,-20 -20,-20 z"
     id="path14"
     inkscape:connector-curvature="0" /></g>
<g
   id="g18">
</g>
<g
   id="g20">
</g>
<g
   id="g22">
</g>
<g
   id="g24">
</g>
<g
   id="g26">
</g>
<g
   id="g28">
</g>
<g
   id="g30">
</g>
<g
   id="g32">
</g>
<g
   id="g34">
</g>
<g
   id="g36">
</g>
<g
   id="g38">
</g>
<g
   id="g40">
</g>
<g
   id="g42">
</g>
<g
   id="g44">
</g>
<g
   id="g46">
</g>
</svg>